<svg width="21" height="21" viewBox="0 0 21 21" fill="none" xmlns="http://www.w3.org/2000/svg">
<g opacity="0.36">
<path d="M17.4434 17.3937C17.083 17.3937 16.7841 17.2793 16.4324 17.0686L7.47623 11.8036C6.99286 11.5137 6.72923 11.1972 6.63248 10.8282V16.4795C6.63248 17.2531 6.22824 17.657 5.45498 17.657H3.45999C2.68636 17.657 2.29074 17.2531 2.29074 16.4795V4.50872C2.29074 3.70922 2.68636 3.33984 3.45961 3.33984H5.45461C6.22824 3.33984 6.63286 3.74409 6.63286 4.50872V10.1513C6.72923 9.79134 6.99286 9.46584 7.47661 9.18459L16.4324 3.91134C16.7927 3.70022 17.083 3.58584 17.4434 3.58584C18.1289 3.58584 18.709 4.11347 18.709 5.09784V15.8903C18.709 16.8751 18.1289 17.3937 17.4434 17.3937Z" fill="white"/>
</g>
</svg>
