<svg width="36" height="36" viewBox="0 0 36 36" fill="none" xmlns="http://www.w3.org/2000/svg">
<path d="M32.8809 9.93C32.7287 9.56348 32.4374 9.27221 32.0709 9.12C31.8906 9.04314 31.6969 9.00237 31.5009 9H24.0009C23.6031 9 23.2215 9.15804 22.9402 9.43934C22.6589 9.72064 22.5009 10.1022 22.5009 10.5C22.5009 10.8978 22.6589 11.2794 22.9402 11.5607C23.2215 11.842 23.6031 12 24.0009 12H27.8859L19.5009 20.385L14.5659 15.435C14.4264 15.2944 14.2605 15.1828 14.0778 15.1067C13.895 15.0305 13.6989 14.9913 13.5009 14.9913C13.3029 14.9913 13.1068 15.0305 12.924 15.1067C12.7412 15.1828 12.5753 15.2944 12.4359 15.435L3.43588 24.435C3.29529 24.5744 3.1837 24.7403 3.10755 24.9231C3.03139 25.1059 2.99219 25.302 2.99219 25.5C2.99219 25.698 3.03139 25.8941 3.10755 26.0769C3.1837 26.2597 3.29529 26.4256 3.43588 26.565C3.57533 26.7056 3.74123 26.8172 3.92402 26.8933C4.10681 26.9695 4.30287 27.0087 4.50089 27.0087C4.6989 27.0087 4.89496 26.9695 5.07775 26.8933C5.26054 26.8172 5.42644 26.7056 5.56589 26.565L13.5009 18.615L18.4359 23.565C18.5753 23.7056 18.7412 23.8172 18.924 23.8933C19.1068 23.9695 19.3029 24.0087 19.5009 24.0087C19.6989 24.0087 19.895 23.9695 20.0778 23.8933C20.2605 23.8172 20.4264 23.7056 20.5659 23.565L30.0009 14.115V18C30.0009 18.3978 30.1589 18.7794 30.4402 19.0607C30.7215 19.342 31.1031 19.5 31.5009 19.5C31.8987 19.5 32.2802 19.342 32.5615 19.0607C32.8429 18.7794 33.0009 18.3978 33.0009 18V10.5C32.9985 10.304 32.9577 10.1103 32.8809 9.93Z" fill="#62408F"/>
</svg>
