<svg width="42" height="42" viewBox="0 0 42 42" fill="none" xmlns="http://www.w3.org/2000/svg">
<path d="M21.8662 41.0352L21.8604 41.0176L21.8457 41.0186L21.8398 41.0283M21.8662 41.0352L21.8398 41.0283M21.8662 41.0352L21.8867 41.0283M21.8662 41.0352L21.8701 41.0186H21.8799L21.8867 41.0283M21.8398 41.0283L21.8281 41.0195H21.8418L21.8398 41.0283ZM21.8867 41.0283L21.8887 41.0264L21.8896 41.0195L21.8828 41.0186L21.8867 41.0283Z" stroke="#6356D7" stroke-width="4"/>
<path d="M12.4404 8.06348C12.5293 8.05825 12.6184 8.07422 12.7002 8.10938L12.7031 8.11035C14.5039 8.88019 18.5954 10.7337 23.7979 13.7363C28.3512 16.3649 31.7167 18.6985 33.5361 20.0264L34.2197 20.5322C34.5327 20.7682 34.5327 21.2191 34.2188 21.4551C32.7693 22.5445 29.5092 24.8834 24.7656 27.6797L23.7979 28.2451C18.524 31.2887 14.4818 33.1191 12.7021 33.877L12.7002 33.8779C12.3432 34.0302 11.9522 33.8059 11.9053 33.417C11.6713 31.4804 11.2266 27.0243 11.2266 20.9922C11.2266 14.9629 11.6698 10.5086 11.9053 8.57227V8.56738C11.9158 8.47908 11.9472 8.39458 11.9961 8.32031C12.0451 8.24601 12.1104 8.18317 12.1875 8.13867C12.2646 8.09417 12.3515 8.06871 12.4404 8.06348Z" stroke="#6356D7" stroke-width="4"/>
</svg>
