<svg width="31" height="31" viewBox="0 0 31 31" fill="none" xmlns="http://www.w3.org/2000/svg">
<path fill-rule="evenodd" clip-rule="evenodd" d="M7.324 6.14715C7.35888 5.85387 7.4617 5.57276 7.62429 5.32619C7.78687 5.07961 8.00474 4.87437 8.26057 4.72676C8.51639 4.57916 8.80312 4.49328 9.09797 4.47593C9.39281 4.45859 9.68763 4.51027 9.959 4.62686C11.3308 5.21328 14.4049 6.60699 18.3058 8.85836C22.2079 11.111 24.9527 13.0782 26.1449 13.9708C27.1627 14.7342 27.1653 16.248 26.1462 17.0139C24.9656 17.9013 22.2544 19.8427 18.3058 22.1238C14.3533 24.4049 11.3153 25.7818 9.95642 26.3604C8.78617 26.8603 7.47642 26.1021 7.324 24.8402C7.14575 23.3651 6.8125 20.0158 6.8125 15.4924C6.8125 10.9715 7.14446 7.62353 7.324 6.14715Z" fill="white" fill-opacity="0.74"/>
</svg>
