<svg width="28" height="28" viewBox="0 0 28 28" fill="none" xmlns="http://www.w3.org/2000/svg">
<path d="M15.247 12.1463C15.9557 11.1562 16.3368 9.96901 16.3368 8.75135C16.3368 7.53368 15.9557 6.34654 15.247 5.35635C15.9106 4.9043 16.6958 4.66428 17.4987 4.66801C18.5817 4.66801 19.6203 5.09822 20.3861 5.86399C21.1518 6.62977 21.582 7.66838 21.582 8.75135C21.582 9.83431 21.1518 10.8729 20.3861 11.6387C19.6203 12.4045 18.5817 12.8347 17.4987 12.8347C16.6958 12.8384 15.9106 12.5984 15.247 12.1463ZM6.41536 8.75135C6.41536 7.94374 6.65485 7.15427 7.10353 6.48277C7.55221 5.81127 8.18994 5.28789 8.93607 4.97884C9.68221 4.66978 10.5032 4.58892 11.2953 4.74647C12.0874 4.90403 12.815 5.29293 13.3861 5.86399C13.9571 6.43506 14.346 7.16264 14.5036 7.95473C14.6611 8.74682 14.5803 9.56784 14.2712 10.314C13.9621 11.0601 13.4388 11.6978 12.7673 12.1465C12.0958 12.5952 11.3063 12.8347 10.4987 12.8347C9.41573 12.8347 8.37712 12.4045 7.61135 11.6387C6.84557 10.8729 6.41536 9.83431 6.41536 8.75135ZM8.7487 8.75135C8.7487 9.09746 8.85133 9.43581 9.04363 9.72359C9.23592 10.0114 9.50923 10.2357 9.829 10.3681C10.1488 10.5006 10.5006 10.5352 10.8401 10.4677C11.1796 10.4002 11.4914 10.2335 11.7361 9.98878C11.9809 9.74404 12.1475 9.43222 12.2151 9.09275C12.2826 8.75329 12.2479 8.40142 12.1155 8.08165C11.983 7.76188 11.7587 7.48857 11.4709 7.29627C11.1832 7.10398 10.8448 7.00135 10.4987 7.00135C10.0346 7.00135 9.58945 7.18572 9.26126 7.51391C8.93307 7.8421 8.7487 8.28722 8.7487 8.75135ZM18.6654 19.8347V22.168H2.33203V19.8347C2.33203 19.8347 2.33203 15.168 10.4987 15.168C18.6654 15.168 18.6654 19.8347 18.6654 19.8347ZM16.332 19.8347C16.1687 18.9247 14.7804 17.5013 10.4987 17.5013C6.21703 17.5013 4.74703 19.0297 4.66536 19.8347M18.607 15.168C19.3221 15.7242 19.9067 16.4302 20.3199 17.2364C20.7331 18.0426 20.9648 18.9294 20.9987 19.8347V22.168H25.6654V19.8347C25.6654 19.8347 25.6654 15.5997 18.5954 15.168H18.607Z" fill="#36B37E"/>
</svg>
