<svg width="28" height="28" viewBox="0 0 28 28" fill="none" xmlns="http://www.w3.org/2000/svg">
<path d="M2.8599 12.337L7.7599 7.43699C8.03212 7.16476 8.35295 6.97032 8.7224 6.85365C9.09184 6.73698 9.47101 6.71754 9.8599 6.79532L11.3766 7.11615C10.3266 8.3606 9.50017 9.48837 8.8974 10.4995C8.29462 11.5106 7.71128 12.7356 7.1474 14.1745L2.8599 12.337ZM8.83906 14.9912C9.28628 13.5912 9.89412 12.2689 10.6626 11.0245C11.431 9.78004 12.3593 8.61337 13.4474 7.52449C15.1585 5.81337 17.1127 4.5351 19.3099 3.68965C21.5071 2.84421 23.5585 2.58637 25.4641 2.91615C25.7946 4.82171 25.5418 6.8731 24.7057 9.07032C23.8696 11.2675 22.596 13.2217 20.8849 14.9328C19.8155 16.0023 18.6488 16.9309 17.3849 17.7188C16.121 18.5067 14.7891 19.1239 13.3891 19.5703L8.83906 14.9912ZM16.8891 11.4912C17.3363 11.9384 17.8858 12.162 18.5376 12.162C19.1893 12.162 19.7384 11.9384 20.1849 11.4912C20.6313 11.0439 20.8549 10.4948 20.8557 9.84382C20.8565 9.19282 20.6329 8.64332 20.1849 8.19532C19.7369 7.74732 19.1878 7.52371 18.5376 7.52449C17.8873 7.52526 17.3378 7.74887 16.8891 8.19532C16.4403 8.64176 16.2167 9.19126 16.2182 9.84382C16.2198 10.4964 16.4434 11.0455 16.8891 11.4912ZM16.0724 25.5203L14.2057 21.2328C15.6446 20.6689 16.8747 20.0856 17.8959 19.4828C18.9171 18.88 20.0496 18.0537 21.2932 17.0037L21.5849 18.5203C21.6627 18.9092 21.6432 19.2934 21.5266 19.673C21.4099 20.0525 21.2155 20.378 20.9432 20.6495L16.0724 25.5203ZM4.72656 18.7245C5.40712 18.0439 6.23351 17.6986 7.20573 17.6885C8.17795 17.6784 9.00434 18.014 9.6849 18.6953C10.3655 19.3767 10.7057 20.203 10.7057 21.1745C10.7057 22.1459 10.3655 22.9723 9.6849 23.6537C9.19878 24.1398 8.38717 24.5578 7.25006 24.9078C6.11295 25.2578 4.54262 25.5689 2.53906 25.8412C2.81128 23.8384 3.1224 22.2731 3.4724 21.1453C3.8224 20.0175 4.24045 19.2106 4.72656 18.7245Z" fill="#2F80EC"/>
</svg>
