<svg width="34" height="34" viewBox="0 0 34 34" fill="none" xmlns="http://www.w3.org/2000/svg">
<path d="M7.08203 26.9178V14.6041C7.08203 14.2415 7.16325 13.8982 7.3257 13.5742C7.48814 13.2503 7.71198 12.9835 7.9972 12.7738L15.6259 6.99665C16.0254 6.69159 16.4816 6.53906 16.9944 6.53906C17.5073 6.53906 17.9663 6.69159 18.3714 6.99665L26.0002 12.7724C26.2864 12.9821 26.5102 13.2493 26.6717 13.5742C26.8341 13.8982 26.9154 14.2415 26.9154 14.6041V26.9178C26.9154 27.2975 26.7742 27.6285 26.4918 27.9109C26.2094 28.1933 25.8784 28.3345 25.4987 28.3345H20.7047C20.3798 28.3345 20.1078 28.2249 19.8887 28.0058C19.6696 27.7858 19.56 27.5138 19.56 27.1898V20.4337C19.56 20.1098 19.4505 19.8383 19.2314 19.6191C19.0113 19.3991 18.7393 19.2891 18.4154 19.2891H15.582C15.2581 19.2891 14.9866 19.3991 14.7674 19.6191C14.5474 19.8383 14.4374 20.1098 14.4374 20.4337V27.1912C14.4374 27.5152 14.3278 27.7867 14.1087 28.0058C13.8896 28.2249 13.6181 28.3345 13.2941 28.3345H8.4987C8.11903 28.3345 7.788 28.1933 7.50561 27.9109C7.22323 27.6285 7.08203 27.2975 7.08203 26.9178Z" fill="white" fill-opacity="0.74"/>
</svg>
