<svg width="28" height="28" viewBox="0 0 28 28" fill="none" xmlns="http://www.w3.org/2000/svg">
<path d="M24.1161 6.50891L19.7411 2.13391C19.6191 2.01206 19.4743 1.91544 19.315 1.84957C19.1557 1.7837 18.9849 1.74986 18.8125 1.75H10.0625C9.48234 1.75 8.92594 1.98047 8.5157 2.3907C8.10547 2.80094 7.875 3.35734 7.875 3.9375V6.125H6.125C5.54484 6.125 4.98844 6.35547 4.5782 6.7657C4.16797 7.17594 3.9375 7.73234 3.9375 8.3125V23.625C3.9375 24.2052 4.16797 24.7616 4.5782 25.1718C4.98844 25.582 5.54484 25.8125 6.125 25.8125H17.9375C18.5177 25.8125 19.0741 25.582 19.4843 25.1718C19.8945 24.7616 20.125 24.2052 20.125 23.625V21.4375H22.3125C22.8927 21.4375 23.4491 21.207 23.8593 20.7968C24.2695 20.3866 24.5 19.8302 24.5 19.25V7.4375C24.5001 7.26509 24.4663 7.09434 24.4004 6.93501C24.3346 6.77568 24.2379 6.63089 24.1161 6.50891ZM17.5 23.1875H6.5625V8.75H13.8906L17.5 12.3594V23.1875ZM21.875 18.8125H20.125V11.8125C20.1251 11.6401 20.0913 11.4693 20.0254 11.31C19.9596 11.1507 19.8629 11.0059 19.7411 10.8839L15.3661 6.50891C15.2441 6.38706 15.0993 6.29044 14.94 6.22457C14.7807 6.1587 14.6099 6.12487 14.4375 6.125H10.5V4.375H18.2656L21.875 7.98438V18.8125ZM15.75 15.75C15.75 16.0981 15.6117 16.4319 15.3656 16.6781C15.1194 16.9242 14.7856 17.0625 14.4375 17.0625H9.625C9.2769 17.0625 8.94306 16.9242 8.69692 16.6781C8.45078 16.4319 8.3125 16.0981 8.3125 15.75C8.3125 15.4019 8.45078 15.0681 8.69692 14.8219C8.94306 14.5758 9.2769 14.4375 9.625 14.4375H14.4375C14.7856 14.4375 15.1194 14.5758 15.3656 14.8219C15.6117 15.0681 15.75 15.4019 15.75 15.75ZM15.75 20.125C15.75 20.4731 15.6117 20.8069 15.3656 21.0531C15.1194 21.2992 14.7856 21.4375 14.4375 21.4375H9.625C9.2769 21.4375 8.94306 21.2992 8.69692 21.0531C8.45078 20.8069 8.3125 20.4731 8.3125 20.125C8.3125 19.7769 8.45078 19.4431 8.69692 19.1969C8.94306 18.9508 9.2769 18.8125 9.625 18.8125H14.4375C14.7856 18.8125 15.1194 18.9508 15.3656 19.1969C15.6117 19.4431 15.75 19.7769 15.75 20.125Z" fill="#8A76FC"/>
</svg>
