<svg width="44" height="44" viewBox="0 0 44 44" fill="none" xmlns="http://www.w3.org/2000/svg">
<path d="M22 27.5C25.0376 27.5 27.5 25.0376 27.5 22C27.5 18.9624 25.0376 16.5 22 16.5C18.9624 16.5 16.5 18.9624 16.5 22C16.5 25.0376 18.9624 27.5 22 27.5Z" stroke="#8A76FC" stroke-width="2"/>
<path d="M37.0115 20.0457C37.7229 20.911 38.0785 21.3418 38.0785 22C38.0785 22.6582 37.7229 23.089 37.0115 23.9543C34.4082 27.115 28.6662 33 22.0002 33C15.3342 33 9.59221 27.115 6.98888 23.9543C6.27754 23.089 5.92188 22.6582 5.92188 22C5.92188 21.3418 6.27754 20.911 6.98888 20.0457C9.59221 16.885 15.3342 11 22.0002 11C28.6662 11 34.4082 16.885 37.0115 20.0457Z" stroke="#8A76FC" stroke-width="2"/>
</svg>
