<svg width="22" height="22" viewBox="0 0 22 22" fill="none" xmlns="http://www.w3.org/2000/svg">
<path d="M12.8337 11V18.2233C12.8704 18.4983 12.7787 18.7917 12.5679 18.9842C12.4831 19.0691 12.3823 19.1366 12.2714 19.1826C12.1605 19.2286 12.0417 19.2522 11.9216 19.2522C11.8016 19.2522 11.6827 19.2286 11.5718 19.1826C11.4609 19.1366 11.3602 19.0691 11.2754 18.9842L9.43287 17.1417C9.33295 17.0439 9.25697 16.9244 9.21086 16.7924C9.16474 16.6604 9.14975 16.5196 9.16703 16.3808V11H9.13953L3.85953 4.235C3.71067 4.0439 3.6435 3.80165 3.6727 3.56119C3.7019 3.32072 3.8251 3.10158 4.01536 2.95167C4.18953 2.82333 4.38203 2.75 4.5837 2.75H17.417C17.6187 2.75 17.8112 2.82333 17.9854 2.95167C18.1756 3.10158 18.2988 3.32072 18.328 3.56119C18.3572 3.80165 18.2901 4.0439 18.1412 4.235L12.8612 11H12.8337Z" fill="#8A76FC"/>
</svg>
