<svg width="21" height="21" viewBox="0 0 21 21" fill="none" xmlns="http://www.w3.org/2000/svg">
<g opacity="0.36">
<path d="M3.55664 17.3937C3.91702 17.3937 4.21589 17.2793 4.56764 17.0686L13.5238 11.8036C14.0071 11.5137 14.2708 11.1972 14.3675 10.8282V16.4795C14.3675 17.2531 14.7718 17.657 15.545 17.657H17.54C18.3136 17.657 18.7093 17.2531 18.7093 16.4795V4.50872C18.7093 3.70922 18.3136 3.33984 17.5404 3.33984H15.5454C14.7718 3.33984 14.3671 3.74409 14.3671 4.50872V10.1513C14.2708 9.79134 14.0071 9.46584 13.5234 9.18459L4.56764 3.91134C4.20727 3.70022 3.91702 3.58584 3.55664 3.58584C2.87114 3.58584 2.29102 4.11347 2.29102 5.09784V15.8903C2.29102 16.8751 2.87114 17.3937 3.55664 17.3937Z" fill="white"/>
</g>
</svg>
