<svg width="44" height="44" viewBox="0 0 44 44" fill="none" xmlns="http://www.w3.org/2000/svg">
<path d="M18.1719 23.9169C18.995 25.0173 20.0451 25.9279 21.2511 26.5867C22.457 27.2456 23.7906 27.6374 25.1613 27.7356C26.532 27.8337 27.9077 27.636 29.1953 27.1557C30.4828 26.6754 31.652 25.9238 32.6235 24.9519L38.3735 19.2019C40.1192 17.3945 41.0852 14.9737 41.0633 12.461C41.0415 9.94828 40.0336 7.54466 38.2568 5.76783C36.48 3.991 34.0764 2.98313 31.5636 2.9613C29.0509 2.93946 26.6301 3.90541 24.8227 5.65109L21.526 8.92859" stroke="#623DC7" stroke-width="4" stroke-linecap="round" stroke-linejoin="round"/>
<path d="M25.8371 20.0853C25.014 18.9849 23.9639 18.0744 22.7579 17.4155C21.552 16.7566 20.2184 16.3648 18.8477 16.2667C17.477 16.1685 16.1013 16.3663 14.8137 16.8466C13.5262 17.3269 12.357 18.0784 11.3855 19.0503L5.63547 24.8003C3.88979 26.6077 2.92384 29.0285 2.94567 31.5412C2.96751 34.054 3.97538 36.4576 5.75221 38.2344C7.52903 40.0112 9.93265 41.0191 12.4454 41.0409C14.9581 41.0628 17.3789 40.0968 19.1863 38.3511L22.4638 35.0736" stroke="#623DC7" stroke-width="4" stroke-linecap="round" stroke-linejoin="round"/>
</svg>
