<svg width="44" height="44" viewBox="0 0 44 44" fill="none" xmlns="http://www.w3.org/2000/svg">
<path d="M21.9971 4.66797H21.998C23.2031 4.6669 24.4057 4.79178 25.585 5.04004C25.6121 5.04582 25.6374 5.05868 25.6572 5.07812C25.6771 5.09765 25.6901 5.12325 25.6963 5.15039C25.7024 5.17742 25.7007 5.20534 25.6914 5.23145C25.682 5.25768 25.6656 5.28084 25.6436 5.29785C24.7505 5.98654 24.0678 6.91141 23.6729 7.96777C23.2779 9.02428 23.1868 10.1706 23.4092 11.2764C23.6316 12.3821 24.159 13.4039 24.9316 14.2256C25.7043 15.0471 26.6914 15.6359 27.7812 15.9258L27.7832 15.9268C27.8122 15.9345 27.8382 15.9506 27.8574 15.9736C27.8767 15.9968 27.8882 16.0257 27.8906 16.0557V16.0576C27.9875 17.2943 28.463 18.4715 29.252 19.4287C30.041 20.386 31.1062 21.077 32.3018 21.4082C33.4972 21.7393 34.7655 21.695 35.9346 21.2803C37.1032 20.8656 38.1156 20.1008 38.835 19.0908C38.8517 19.0675 38.8755 19.0502 38.9023 19.04C38.9292 19.0299 38.9583 19.0278 38.9863 19.0342C39.0144 19.0407 39.0408 19.0551 39.0605 19.0762C39.0802 19.0972 39.0929 19.124 39.0977 19.1523C39.2131 19.8472 39.2858 20.5551 39.3154 21.2764L39.3311 22.0029C39.3302 31.5754 31.5697 39.335 21.9971 39.335C12.424 39.3348 4.66406 31.5741 4.66406 22.001C4.66424 12.428 12.4241 4.66815 21.9971 4.66797ZM27.4971 28.335C26.7459 28.335 26.0254 28.633 25.4941 29.1641C24.9628 29.6954 24.6641 30.4165 24.6641 31.168C24.6641 31.9194 24.9628 32.6405 25.4941 33.1719C26.0254 33.703 26.7459 34.0009 27.4971 34.001C28.2484 34.001 28.9696 33.7031 29.501 33.1719C30.0323 32.6405 30.3311 31.9194 30.3311 31.168C30.3311 30.4165 30.0323 29.6954 29.501 29.1641C28.9696 28.6328 28.2484 28.335 27.4971 28.335ZM14.6641 26.501C13.9126 26.501 13.1915 26.7997 12.6602 27.3311C12.1289 27.8624 11.8311 28.5836 11.8311 29.335C11.8311 30.0861 12.1291 30.8066 12.6602 31.3379C13.1915 31.8692 13.9126 32.168 14.6641 32.168C15.4155 32.168 16.1366 31.8692 16.668 31.3379C17.199 30.8066 17.497 30.0861 17.4971 29.335C17.4971 28.5836 17.1992 27.8624 16.668 27.3311C16.1366 26.7997 15.4155 26.501 14.6641 26.501ZM21.9971 19.168C21.2457 19.1681 20.5254 19.4668 19.9941 19.998C19.4629 20.5293 19.1642 21.2496 19.1641 22.001C19.1641 22.7524 19.4628 23.4735 19.9941 24.0049C20.5254 24.5361 21.2458 24.8349 21.9971 24.835C22.7485 24.835 23.4696 24.5362 24.001 24.0049C24.5323 23.4735 24.8311 22.7524 24.8311 22.001C24.831 21.2497 24.5322 20.5293 24.001 19.998C23.4696 19.4667 22.7485 19.168 21.9971 19.168ZM12.8311 13.668C12.0796 13.668 11.3585 13.9667 10.8271 14.498C10.296 15.0293 9.99716 15.7497 9.99707 16.501C9.99707 17.2524 10.2958 17.9735 10.8271 18.5049C11.3585 19.0362 12.0796 19.335 12.8311 19.335C13.5823 19.3349 14.3027 19.0361 14.834 18.5049C15.3653 17.9735 15.6641 17.2524 15.6641 16.501C15.664 15.7496 15.3653 15.0293 14.834 14.498C14.3027 13.9668 13.5824 13.6681 12.8311 13.668Z" stroke="#CB8E0D" stroke-width="2"/>
</svg>
