<svg width="56" height="56" viewBox="0 0 56 56" fill="none" xmlns="http://www.w3.org/2000/svg">
<path d="M51.1498 15.4545C50.913 14.8843 50.4599 14.4313 49.8898 14.1945C49.6093 14.0749 49.308 14.0115 49.0031 14.0078H37.3364C36.7176 14.0078 36.1241 14.2536 35.6865 14.6912C35.2489 15.1288 35.0031 15.7223 35.0031 16.3411C35.0031 16.96 35.2489 17.5535 35.6865 17.9911C36.1241 18.4286 36.7176 18.6745 37.3364 18.6745H43.3798L30.3364 31.7178L22.6598 24.0178C22.4429 23.7991 22.1848 23.6255 21.9005 23.5071C21.6161 23.3886 21.3111 23.3276 21.0031 23.3276C20.6951 23.3276 20.3901 23.3886 20.1058 23.5071C19.8214 23.6255 19.5634 23.7991 19.3464 24.0178L5.34645 38.0178C5.12775 38.2347 4.95416 38.4928 4.8357 38.7771C4.71724 39.0615 4.65625 39.3665 4.65625 39.6745C4.65625 39.9825 4.71724 40.2875 4.8357 40.5718C4.95416 40.8562 5.12775 41.1142 5.34645 41.3311C5.56336 41.5498 5.82143 41.7234 6.10577 41.8419C6.39011 41.9604 6.69509 42.0213 7.00311 42.0213C7.31114 42.0213 7.61612 41.9604 7.90046 41.8419C8.1848 41.7234 8.44287 41.5498 8.65978 41.3311L21.0031 28.9645L28.6798 36.6645C28.8967 36.8832 29.1548 37.0568 29.4391 37.1752C29.7234 37.2937 30.0284 37.3547 30.3364 37.3547C30.6445 37.3547 30.9495 37.2937 31.2338 37.1752C31.5181 37.0568 31.7762 36.8832 31.9931 36.6645L46.6698 21.9645V28.0078C46.6698 28.6267 46.9156 29.2201 47.3532 29.6577C47.7908 30.0953 48.3843 30.3411 49.0031 30.3411C49.6219 30.3411 50.2154 30.0953 50.653 29.6577C51.0906 29.2201 51.3364 28.6267 51.3364 28.0078V16.3411C51.3328 16.0362 51.2693 15.735 51.1498 15.4545Z" fill="#36B37E"/>
</svg>
