<svg width="45" height="45" viewBox="0 0 45 45" fill="none" xmlns="http://www.w3.org/2000/svg">
<path d="M30.6484 24.918C28.5212 24.918 26.481 25.763 24.9769 27.2672C23.4727 28.7714 22.6276 30.8115 22.6276 32.9388M22.6276 32.9388V35.2305M22.6276 32.9388C22.6276 30.8115 21.7826 28.7714 20.2784 27.2672C18.7742 25.763 16.734 24.918 14.6068 24.918M22.6276 35.2305C22.6276 37.3577 23.4727 39.3979 24.9769 40.9021C26.481 42.4063 28.5212 43.2513 30.6484 43.2513C32.7757 43.2513 34.8158 42.4063 36.32 40.9021C37.8242 39.3979 38.6693 37.3577 38.6693 35.2305V31.1055M22.6276 35.2305C22.6276 37.3577 21.7826 39.3979 20.2784 40.9021C18.7742 42.4063 16.734 43.2513 14.6068 43.2513C12.4795 43.2513 10.4394 42.4063 8.93519 40.9021C7.43099 39.3979 6.58594 37.3577 6.58594 35.2305V31.1055" stroke="#2F80EC" stroke-width="3" stroke-linecap="round" stroke-linejoin="round"/>
<path d="M35.2318 31.7917C37.359 31.7917 39.3992 30.9466 40.9034 29.4424C42.4076 27.9382 43.2526 25.8981 43.2526 23.7708C43.2526 21.6436 42.4076 19.6034 40.9034 18.0992C39.3992 16.5951 37.359 15.75 35.2318 15.75H34.0859" stroke="#2F80EC" stroke-width="3" stroke-linecap="round" stroke-linejoin="round"/>
<path d="M38.6667 16.4375V10.0208C38.6667 7.89358 37.8216 5.85345 36.3174 4.34925C34.8132 2.84505 32.7731 2 30.6458 2C28.5186 2 26.4784 2.84505 24.9742 4.34925C23.4701 5.85345 22.625 7.89358 22.625 10.0208M10.0208 31.7917C7.89358 31.7917 5.85345 30.9466 4.34925 29.4424C2.84505 27.9382 2 25.8981 2 23.7708C2 21.6436 2.84505 19.6034 4.34925 18.0992C5.85345 16.5951 7.89358 15.75 10.0208 15.75H11.1667" stroke="#2F80EC" stroke-width="3" stroke-linecap="round" stroke-linejoin="round"/>
<path d="M6.58594 16.4375V10.0208C6.58594 7.89358 7.43099 5.85345 8.93519 4.34925C10.4394 2.84505 12.4795 2 14.6068 2C16.734 2 18.7742 2.84505 20.2784 4.34925C21.7826 5.85345 22.6276 7.89358 22.6276 10.0208V32.9375" stroke="#2F80EC" stroke-width="3" stroke-linecap="round" stroke-linejoin="round"/>
</svg>
