<svg width="37" height="37" viewBox="0 0 37 37" fill="none" xmlns="http://www.w3.org/2000/svg">
<path d="M14.6076 24.6748L28.7617 29.7377C28.9995 29.8231 29.2534 29.8544 29.5048 29.8291C29.7562 29.8038 29.9988 29.7227 30.2149 29.5916C30.4309 29.4606 30.6149 29.2829 30.7535 29.0715C30.892 28.8602 30.9816 28.6206 31.0156 28.3702L33.9031 6.5433C34.0789 5.21438 32.7022 4.22309 31.4874 4.80121L4.04723 17.8992C2.69056 18.5467 2.79231 20.5046 4.21064 21.0088L7.97231 22.3469L10.0227 23.0669M20.0436 26.6173L16.9756 31.7449C15.9736 32.9906 13.9555 32.286 13.9555 30.692V26.5865C13.9556 25.8118 14.2473 25.0654 14.7726 24.496L20.7404 18.021" stroke="#E04545" stroke-width="3" stroke-linecap="round" stroke-linejoin="round"/>
</svg>
