<svg width="43" height="43" viewBox="0 0 43 43" fill="none" xmlns="http://www.w3.org/2000/svg">
<path d="M16.976 28.6671L33.4253 34.5509C33.7017 34.6502 33.9967 34.6865 34.2889 34.6572C34.5811 34.6278 34.8631 34.5335 35.1141 34.3812C35.3652 34.2289 35.5791 34.0224 35.7401 33.7768C35.9011 33.5312 36.0052 33.2527 36.0447 32.9617L39.4005 7.59529C39.6048 6.05087 38.0048 4.89883 36.593 5.57071L4.70311 20.7927C3.12645 21.5452 3.2447 23.8206 4.89303 24.4065L9.2647 25.9617L11.6476 26.7984M23.2934 30.9246L19.728 36.8837C18.5634 38.3313 16.2182 37.5125 16.2182 35.66V30.8887C16.2182 29.9884 16.5572 29.121 17.1677 28.4592L24.1033 20.9342" stroke="#8471F1" stroke-width="3" stroke-linecap="round" stroke-linejoin="round"/>
</svg>
