<svg width="68" height="68" viewBox="0 0 68 68" fill="none" xmlns="http://www.w3.org/2000/svg">
<mask id="path-1-inside-1_259_2214" fill="white">
<path fill-rule="evenodd" clip-rule="evenodd" d="M35.6797 64.8618L35.6485 64.8674L35.4473 64.9666L35.3907 64.9779L35.351 64.9666L35.1498 64.8674C35.1196 64.858 35.097 64.8627 35.0818 64.8816L35.0705 64.9099L35.0223 66.1226L35.0365 66.1793L35.0648 66.2161L35.3595 66.4258L35.402 66.4371L35.436 66.4258L35.7307 66.2161L35.7647 66.1708L35.776 66.1226L35.7278 64.9128C35.7203 64.8825 35.7042 64.8655 35.6797 64.8618ZM36.4305 64.5416L36.3937 64.5473L35.8695 64.8108L35.8412 64.8391L35.8327 64.8703L35.8837 66.0886L35.8978 66.1226L35.9205 66.1424L36.49 66.4059C36.5259 66.4154 36.5533 66.4078 36.5722 66.3833L36.5835 66.3436L36.4872 64.6039C36.4777 64.5699 36.4588 64.5492 36.4305 64.5416ZM34.4047 64.5473C34.3922 64.5397 34.3773 64.5372 34.363 64.5404C34.3488 64.5436 34.3363 64.5521 34.3282 64.5643L34.3112 64.6039L34.2148 66.3436C34.2167 66.3776 34.2328 66.4003 34.263 66.4116L34.3055 66.4059L34.875 66.1424L34.9033 66.1198L34.9147 66.0886L34.9628 64.8703L34.9543 64.8363L34.926 64.8079L34.4047 64.5473Z"/>
</mask>
<path d="M35.6797 64.8618L36.2879 60.9083L35.6244 60.8062L34.9639 60.9263L35.6797 64.8618ZM35.6485 64.8674L34.9327 60.932L34.382 61.0322L33.8799 61.2797L35.6485 64.8674ZM35.4473 64.9666L36.2318 68.8889L36.7458 68.7861L37.2159 68.5544L35.4473 64.9666ZM35.3907 64.9779L34.2919 68.824L35.2242 69.0904L36.1751 68.9003L35.3907 64.9779ZM35.351 64.9666L33.5824 68.5544L33.9057 68.7137L34.2522 68.8127L35.351 64.9666ZM35.1498 64.8674L36.9184 61.2797L36.6396 61.1422L36.3429 61.0495L35.1498 64.8674ZM35.0818 64.8816L31.9584 62.3828L31.588 62.8457L31.3679 63.3962L35.0818 64.8816ZM35.0705 64.9099L31.3566 63.4245L31.101 64.0635L31.0737 64.7512L35.0705 64.9099ZM35.0223 66.1226L31.0255 65.9638L31.0027 66.5366L31.1418 67.0927L35.0223 66.1226ZM35.0365 66.1793L31.1559 67.1494L31.358 67.9577L31.866 68.6181L35.0365 66.1793ZM35.0648 66.2161L31.8943 68.6549L32.2588 69.1287L32.7458 69.4753L35.0648 66.2161ZM35.3595 66.4258L33.0405 69.6849L33.6299 70.1043L34.3289 70.2907L35.3595 66.4258ZM35.402 66.4371L34.3715 70.3021L35.5297 70.6109L36.6668 70.2319L35.402 66.4371ZM35.436 66.4258L36.7008 70.2205L37.2679 70.0315L37.755 69.6849L35.436 66.4258ZM35.7307 66.2161L38.0497 69.4753L38.5571 69.1142L38.9307 68.616L35.7307 66.2161ZM35.7647 66.1708L38.9647 68.5707L39.4667 67.9013L39.6584 67.0868L35.7647 66.1708ZM35.776 66.1226L39.6697 67.0387L39.7945 66.5081L39.7728 65.9635L35.776 66.1226ZM35.7278 64.9128L39.7247 64.7536L39.7083 64.3421L39.6084 63.9426L35.7278 64.9128ZM36.4305 64.5416L37.4612 60.6767L36.6512 60.4607L35.8226 60.5881L36.4305 64.5416ZM36.3937 64.5473L35.7858 60.5937L35.1614 60.6897L34.5971 60.9734L36.3937 64.5473ZM35.8695 64.8108L34.0729 61.2369L33.4969 61.5265L33.0411 61.9823L35.8695 64.8108ZM35.8412 64.8391L33.0127 62.0107L32.2615 62.7619L31.9821 63.7868L35.8412 64.8391ZM35.8327 64.8703L31.9736 63.818L31.8102 64.4171L31.8362 65.0376L35.8327 64.8703ZM35.8837 66.0886L31.8872 66.2559L31.917 66.9687L32.1914 67.6272L35.8837 66.0886ZM35.8978 66.1226L32.2056 67.6612L32.5635 68.5202L33.2639 69.133L35.8978 66.1226ZM35.9205 66.1424L33.2866 69.1528L33.7192 69.5313L34.2408 69.7727L35.9205 66.1424ZM36.49 66.4059L34.8103 70.0362L35.1307 70.1844L35.472 70.2742L36.49 66.4059ZM36.5722 66.3833L39.7427 68.8221L40.2084 68.2166L40.4183 67.4821L36.5722 66.3833ZM36.5835 66.3436L40.4296 67.4424L40.6146 66.7949L40.5774 66.1224L36.5835 66.3436ZM36.4872 64.6039L40.4811 64.3828L40.4571 63.9505L40.3412 63.5334L36.4872 64.6039ZM34.4047 64.5473L32.3315 67.9681L32.4705 68.0523L32.6158 68.125L34.4047 64.5473ZM34.3282 64.5643L31.0013 62.3434L30.7968 62.6499L30.6516 62.9885L34.3282 64.5643ZM34.3112 64.6039L30.6346 63.0281L30.3564 63.6774L30.3173 64.3828L34.3112 64.6039ZM34.2148 66.3436L30.221 66.1224L30.2087 66.344L30.221 66.5655L34.2148 66.3436ZM34.263 66.4116L32.8585 70.1569L33.7977 70.5091L34.7919 70.3765L34.263 66.4116ZM34.3055 66.4059L34.8344 70.3708L35.4351 70.2907L35.9852 70.0362L34.3055 66.4059ZM34.875 66.1424L36.5547 69.7727L36.9949 69.569L37.3736 69.266L34.875 66.1424ZM34.9033 66.1198L37.402 69.2434L38.2788 68.5419L38.6625 67.4867L34.9033 66.1198ZM34.9147 66.0886L38.6739 67.4555L38.8869 66.8696L38.9116 66.2466L34.9147 66.0886ZM34.9628 64.8703L38.9597 65.0283L38.9824 64.4558L38.8434 63.9L34.9628 64.8703ZM34.9543 64.8363L38.8349 63.866L38.5661 62.7912L37.7828 62.0078L34.9543 64.8363ZM34.926 64.8079L37.7544 61.9795L37.2955 61.5205L36.7149 61.2302L34.926 64.8079ZM35.6797 64.8618L34.9639 60.9263L34.9327 60.932L35.6485 64.8674L36.3643 68.8029L36.3955 68.7972L35.6797 64.8618ZM35.6485 64.8674L33.8799 61.2797L33.6787 61.3788L35.4473 64.9666L37.2159 68.5544L37.4171 68.4552L35.6485 64.8674ZM35.4473 64.9666L34.6629 61.0443L34.6062 61.0556L35.3907 64.9779L36.1751 68.9003L36.2318 68.8889L35.4473 64.9666ZM35.3907 64.9779L36.4895 61.1318L36.4498 61.1205L35.351 64.9666L34.2522 68.8127L34.2919 68.824L35.3907 64.9779ZM35.351 64.9666L37.1196 61.3788L36.9184 61.2797L35.1498 64.8674L33.3812 68.4552L33.5824 68.5544L35.351 64.9666ZM35.1498 64.8674L36.3429 61.0495C35.9059 60.913 35.1734 60.7649 34.2946 60.9479C33.3294 61.1489 32.5189 61.6822 31.9584 62.3828L35.0818 64.8816L38.2053 67.3804C37.6599 68.0621 36.8683 68.5836 35.9258 68.7799C35.0696 68.9582 34.3635 68.8125 33.9567 68.6854L35.1498 64.8674ZM35.0818 64.8816L31.3679 63.3962L31.3566 63.4245L35.0705 64.9099L38.7845 66.3954L38.7958 66.367L35.0818 64.8816ZM35.0705 64.9099L31.0737 64.7512L31.0255 65.9638L35.0223 66.1226L39.0192 66.2814L39.0674 65.0687L35.0705 64.9099ZM35.0223 66.1226L31.1418 67.0927L31.1559 67.1494L35.0365 66.1793L38.9171 65.2091L38.9029 65.1525L35.0223 66.1226ZM35.0365 66.1793L31.866 68.6181L31.8943 68.6549L35.0648 66.2161L38.2354 63.7773L38.207 63.7404L35.0365 66.1793ZM35.0648 66.2161L32.7458 69.4753L33.0405 69.6849L35.3595 66.4258L37.6785 63.1666L37.3839 62.9569L35.0648 66.2161ZM35.3595 66.4258L34.3289 70.2907L34.3715 70.3021L35.402 66.4371L36.4326 62.5721L36.3901 62.5608L35.3595 66.4258ZM35.402 66.4371L36.6668 70.2319L36.7008 70.2205L35.436 66.4258L34.1712 62.631L34.1372 62.6423L35.402 66.4371ZM35.436 66.4258L37.755 69.6849L38.0497 69.4753L35.7307 66.2161L33.4117 62.9569L33.117 63.1666L35.436 66.4258ZM35.7307 66.2161L38.9307 68.616L38.9647 68.5707L35.7647 66.1708L32.5646 63.7708L32.5306 63.8162L35.7307 66.2161ZM35.7647 66.1708L39.6584 67.0868L39.6697 67.0387L35.776 66.1226L31.8823 65.2065L31.871 65.2547L35.7647 66.1708ZM35.776 66.1226L39.7728 65.9635L39.7247 64.7536L35.7278 64.9128L31.731 65.0719L31.7792 66.2817L35.776 66.1226ZM35.7278 64.9128L39.6084 63.9426C39.4916 63.4753 39.2284 62.777 38.6182 62.1309C37.9595 61.4334 37.1209 61.0364 36.2879 60.9083L35.6797 64.8618L35.0714 68.8153C34.2631 68.6909 33.4447 68.3043 32.802 67.6238C32.2079 66.9947 31.9566 66.32 31.8473 65.8829L35.7278 64.9128ZM36.4305 64.5416L35.8226 60.5881L35.7858 60.5937L36.3937 64.5473L37.0016 68.5008L37.0384 68.4951L36.4305 64.5416ZM36.3937 64.5473L34.5971 60.9734L34.0729 61.2369L35.8695 64.8108L37.6661 68.3846L38.1903 68.1211L36.3937 64.5473ZM35.8695 64.8108L33.0411 61.9823L33.0127 62.0107L35.8412 64.8391L38.6696 67.6675L38.6979 67.6392L35.8695 64.8108ZM35.8412 64.8391L31.9821 63.7868L31.9736 63.818L35.8327 64.8703L39.6918 65.9225L39.7003 65.8914L35.8412 64.8391ZM35.8327 64.8703L31.8362 65.0376L31.8872 66.2559L35.8837 66.0886L39.8802 65.9213L39.8292 64.703L35.8327 64.8703ZM35.8837 66.0886L32.1914 67.6272L32.2056 67.6612L35.8978 66.1226L39.5901 64.584L39.5759 64.55L35.8837 66.0886ZM35.8978 66.1226L33.2639 69.133L33.2866 69.1528L35.9205 66.1424L38.5545 63.1321L38.5318 63.1122L35.8978 66.1226ZM35.9205 66.1424L34.2408 69.7727L34.8103 70.0362L36.49 66.4059L38.1697 62.7757L37.6002 62.5122L35.9205 66.1424ZM36.49 66.4059L35.472 70.2742C35.9691 70.405 36.729 70.5039 37.6011 70.2634C38.529 70.0074 39.2541 69.4572 39.7427 68.8221L36.5722 66.3833L33.4017 63.9444C33.8713 63.3339 34.5733 62.7998 35.4739 62.5513C36.3186 62.3184 37.0468 62.4163 37.508 62.5376L36.49 66.4059ZM36.5722 66.3833L40.4183 67.4821L40.4296 67.4424L36.5835 66.3436L32.7374 65.2448L32.7261 65.2844L36.5722 66.3833ZM36.5835 66.3436L40.5774 66.1224L40.4811 64.3828L36.4872 64.6039L32.4933 64.8251L32.5896 66.5648L36.5835 66.3436ZM36.4872 64.6039L40.3412 63.5334C40.043 62.4597 39.1577 61.1291 37.4612 60.6767L36.4305 64.5416L35.3999 68.4065C34.7063 68.2216 34.0373 67.8378 33.5063 67.2537C33.001 66.6979 32.7539 66.1092 32.6331 65.6745L36.4872 64.6039ZM34.4047 64.5473L36.4778 61.1264C35.5835 60.5845 34.515 60.4091 33.4953 60.6357L34.363 64.5404L35.2307 68.4452C34.2395 68.6654 33.2009 68.4949 32.3315 67.9681L34.4047 64.5473ZM34.363 64.5404L33.4953 60.6357C32.4753 60.8623 31.5818 61.4739 31.0013 62.3434L34.3282 64.5643L37.655 66.7851C37.0908 67.6303 36.2222 68.2248 35.2307 68.4452L34.363 64.5404ZM34.3282 64.5643L30.6516 62.9885L30.6346 63.0281L34.3112 64.6039L37.9877 66.1797L38.0047 66.1401L34.3282 64.5643ZM34.3112 64.6039L30.3173 64.3828L30.221 66.1224L34.2148 66.3436L38.2087 66.5648L38.3051 64.8251L34.3112 64.6039ZM34.2148 66.3436L30.221 66.5655C30.2542 67.1639 30.4322 67.947 30.9642 68.6982C31.5062 69.4633 32.2188 69.917 32.8585 70.1569L34.263 66.4116L35.6675 62.6663C36.277 62.8949 36.9665 63.3316 37.4924 64.074C38.0084 64.8025 38.1773 65.5573 38.2087 66.1217L34.2148 66.3436ZM34.263 66.4116L34.7919 70.3765L34.8344 70.3708L34.3055 66.4059L33.7766 62.441L33.7341 62.4467L34.263 66.4116ZM34.3055 66.4059L35.9852 70.0362L36.5547 69.7727L34.875 66.1424L33.1953 62.5122L32.6258 62.7757L34.3055 66.4059ZM34.875 66.1424L37.3736 69.266L37.402 69.2434L34.9033 66.1198L32.4047 62.9962L32.3764 63.0188L34.875 66.1424ZM34.9033 66.1198L38.6625 67.4867L38.6739 67.4555L34.9147 66.0886L31.1555 64.7217L31.1442 64.7528L34.9033 66.1198ZM34.9147 66.0886L38.9116 66.2466L38.9597 65.0283L34.9628 64.8703L30.966 64.7122L30.9178 65.9306L34.9147 66.0886ZM34.9628 64.8703L38.8434 63.9L38.8349 63.866L34.9543 64.8363L31.0738 65.8066L31.0823 65.8406L34.9628 64.8703ZM34.9543 64.8363L37.7828 62.0078L37.7544 61.9795L34.926 64.8079L32.0976 67.6364L32.1259 67.6647L34.9543 64.8363ZM34.926 64.8079L36.7149 61.2302L36.1935 60.9696L34.4047 64.5473L32.6158 68.125L33.1371 68.3856L34.926 64.8079Z" fill="#6356D7" fill-opacity="0.53" mask="url(#path-1-inside-1_259_2214)"/>
<path d="M20.0723 11.8164C20.4083 11.7967 20.7444 11.8554 21.0537 11.9883L21.0576 11.9902C24.0092 13.252 30.6786 16.2744 39.1523 21.165C47.6266 26.0572 53.5801 30.3242 56.1475 32.2461V32.2471C57.3153 33.1229 57.3183 34.8449 56.1494 35.7236C53.7717 37.5108 48.4551 41.3247 40.7295 45.8789L39.1523 46.7988C30.5634 51.7557 23.973 54.7412 21.0537 55.9844L21.0518 55.9854C19.7134 56.5568 18.2237 55.6972 18.0488 54.25C17.6653 51.0764 16.9414 43.8106 16.9414 33.9844C16.9414 24.1635 17.6628 16.9012 18.0488 13.7266L18.0498 13.7217C18.0896 13.3875 18.2064 13.0671 18.3916 12.7861C18.5769 12.5051 18.8256 12.2708 19.1172 12.1025C19.4089 11.9342 19.7361 11.8362 20.0723 11.8164Z" stroke="#6356D7" stroke-opacity="0.53" stroke-width="4"/>
</svg>
