<svg width="118" height="118" viewBox="0 0 118 118" fill="none" xmlns="http://www.w3.org/2000/svg">
<path d="M73.75 49.1667L96.1356 37.9763C96.885 37.6019 97.7176 37.4251 98.5546 37.4628C99.3915 37.5005 100.205 37.7514 100.918 38.1917C101.63 38.632 102.219 39.2472 102.627 39.9788C103.035 40.7103 103.25 41.5341 103.25 42.3718V75.6282C103.25 76.4659 103.035 77.2897 102.627 78.0212C102.219 78.7528 101.63 79.368 100.918 79.8083C100.205 80.2486 99.3915 80.4995 98.5546 80.5372C97.7176 80.5749 96.885 80.3981 96.1356 80.0237L73.75 68.8333V49.1667ZM14.75 39.3333C14.75 36.7254 15.786 34.2242 17.6301 32.3801C19.4742 30.536 21.9754 29.5 24.5833 29.5H63.9167C66.5246 29.5 69.0258 30.536 70.8699 32.3801C72.714 34.2242 73.75 36.7254 73.75 39.3333V78.6667C73.75 81.2746 72.714 83.7758 70.8699 85.6199C69.0258 87.464 66.5246 88.5 63.9167 88.5H24.5833C21.9754 88.5 19.4742 87.464 17.6301 85.6199C15.786 83.7758 14.75 81.2746 14.75 78.6667V39.3333Z" stroke="#8A76FC" stroke-opacity="0.57" stroke-width="7" stroke-linecap="round" stroke-linejoin="round"/>
</svg>
