<svg width="16" height="16" viewBox="0 0 16 16" fill="none" xmlns="http://www.w3.org/2000/svg">
<path d="M8.86094 8L13.8375 3.01094C13.9156 2.93281 13.8609 2.79688 13.75 2.79688H12.3359C12.3031 2.79688 12.2703 2.80938 12.2484 2.83281L7.97813 7.11406L6.56875 5.7C6.76406 5.35469 6.87656 4.95625 6.87656 4.53125C6.87656 3.22031 5.8125 2.15625 4.50156 2.15625C3.19063 2.15625 2.12656 3.22031 2.12656 4.53125C2.12656 5.84219 3.19063 6.90625 4.50156 6.90625C4.93438 6.90625 5.33906 6.79063 5.6875 6.58906L7.09375 8L5.68594 9.41094C5.32553 9.20244 4.91637 9.09301 4.5 9.09375C3.18906 9.09375 2.125 10.1578 2.125 11.4688C2.125 12.7797 3.18906 13.8438 4.5 13.8438C5.81094 13.8438 6.875 12.7797 6.875 11.4688C6.875 11.0437 6.7625 10.6453 6.56719 10.3L7.97656 8.88594L12.2469 13.1672C12.2703 13.1906 12.3016 13.2031 12.3344 13.2031H13.75C13.8609 13.2031 13.9172 13.0687 13.8375 12.9891L8.86094 8ZM4.5 5.78125C3.81094 5.78125 3.25 5.22031 3.25 4.53125C3.25 3.84219 3.81094 3.28125 4.5 3.28125C5.18906 3.28125 5.75 3.84219 5.75 4.53125C5.75 5.22031 5.18906 5.78125 4.5 5.78125ZM4.5 12.7188C3.81094 12.7188 3.25 12.1578 3.25 11.4688C3.25 10.7797 3.81094 10.2188 4.5 10.2188C5.18906 10.2188 5.75 10.7797 5.75 11.4688C5.75 12.1578 5.18906 12.7188 4.5 12.7188Z" fill="#8A76FC"/>
</svg>
