<svg width="24" height="24" viewBox="0 0 24 24" fill="none" xmlns="http://www.w3.org/2000/svg">
<path d="M2.33333 21C1.69167 21 1.14256 20.7717 0.686 20.3152C0.229444 19.8586 0.000777778 19.3091 0 18.6667V4.66667C0 4.025 0.228667 3.47589 0.686 3.01933C1.14333 2.56278 1.69244 2.33411 2.33333 2.33333H8.16667V4.66667H2.33333V18.6667H8.16667V21H2.33333ZM10.5 23.3333V0H12.8333V2.33333H21C21.6417 2.33333 22.1912 2.562 22.6485 3.01933C23.1058 3.47667 23.3341 4.02578 23.3333 4.66667V18.6667C23.3333 19.3083 23.1051 19.8578 22.6485 20.3152C22.1919 20.7725 21.6424 21.0008 21 21H12.8333V23.3333H10.5ZM12.8333 18.6667H21V4.66667H12.8333V18.6667Z" fill="#8A76FC"/>
</svg>
