<svg width="20" height="23" viewBox="0 0 20 23" fill="none" xmlns="http://www.w3.org/2000/svg">
<path d="M0.0820312 20.9178V8.60415C0.0820312 8.24148 0.163253 7.89817 0.325698 7.57423C0.488142 7.25029 0.711976 6.98348 0.997198 6.77381L8.62595 0.996646C9.02545 0.691591 9.48162 0.539062 9.99445 0.539062C10.5073 0.539062 10.9663 0.691591 11.3714 0.996646L19.0002 6.7724C19.2864 6.98206 19.5102 7.24934 19.6717 7.57423C19.8341 7.89817 19.9154 8.24148 19.9154 8.60415V20.9178C19.9154 21.2975 19.7742 21.6285 19.4918 21.9109C19.2094 22.1933 18.8784 22.3345 18.4987 22.3345H13.7047C13.3798 22.3345 13.1078 22.2249 12.8887 22.0058C12.6696 21.7858 12.56 21.5138 12.56 21.1898V14.4337C12.56 14.1098 12.4505 13.8383 12.2314 13.6191C12.0113 13.3991 11.7393 13.2891 11.4154 13.2891H8.58203C8.25809 13.2891 7.98656 13.3991 7.76745 13.6191C7.54739 13.8383 7.43737 14.1098 7.43737 14.4337V21.1912C7.43737 21.5152 7.32781 21.7867 7.1087 22.0058C6.88959 22.2249 6.61806 22.3345 6.29412 22.3345H1.4987C1.11903 22.3345 0.788003 22.1933 0.505614 21.9109C0.223225 21.6285 0.0820313 21.2975 0.0820312 20.9178Z" fill="#8A76FC"/>
</svg>
