<svg width="17" height="15" viewBox="0 0 17 15" fill="none" xmlns="http://www.w3.org/2000/svg">
<path d="M1.55664 14.3937C1.91702 14.3937 2.21589 14.2793 2.56764 14.0686L11.5238 8.80359C12.0071 8.51372 12.2708 8.19722 12.3675 7.82822V13.4795C12.3675 14.2531 12.7718 14.657 13.545 14.657H15.54C16.3136 14.657 16.7093 14.2531 16.7093 13.4795V1.50872C16.7093 0.709219 16.3136 0.339844 15.5404 0.339844H13.5454C12.7718 0.339844 12.3671 0.744094 12.3671 1.50872V7.15134C12.2708 6.79134 12.0071 6.46584 11.5234 6.18459L2.56764 0.911344C2.20727 0.700219 1.91702 0.585844 1.55664 0.585844C0.871141 0.585844 0.291016 1.11347 0.291016 2.09784V12.8903C0.291016 13.8751 0.871141 14.3937 1.55664 14.3937Z" fill="#8A76FC"/>
</svg>
