<svg width="19" height="21" viewBox="0 0 19 21" fill="none" xmlns="http://www.w3.org/2000/svg">
<path d="M3.5 21C2.85834 21 2.30923 20.7717 1.85267 20.3152C1.39611 19.8586 1.16745 19.3091 1.16667 18.6667V3.5C0.836115 3.5 0.559226 3.388 0.336004 3.164C0.112782 2.94 0.000781801 2.66311 4.02298e-06 2.33333C-0.000773755 2.00356 0.111226 1.72667 0.336004 1.50267C0.560782 1.27867 0.837671 1.16667 1.16667 1.16667H5.83334C5.83334 0.836111 5.94534 0.559222 6.16934 0.336C6.39334 0.112778 6.67023 0.000777778 7 0H11.6667C11.9972 0 12.2745 0.112 12.4985 0.336C12.7225 0.56 12.8341 0.836889 12.8333 1.16667H17.5C17.8306 1.16667 18.1078 1.27867 18.3318 1.50267C18.5558 1.72667 18.6674 2.00356 18.6667 2.33333C18.6659 2.66311 18.5539 2.94039 18.3307 3.16517C18.1074 3.38994 17.8306 3.50156 17.5 3.5V18.6667C17.5 19.3083 17.2717 19.8578 16.8152 20.3152C16.3586 20.7725 15.8091 21.0008 15.1667 21H3.5ZM7 16.3333C7.33056 16.3333 7.60784 16.2213 7.83184 15.9973C8.05584 15.7733 8.16745 15.4964 8.16667 15.1667V7C8.16667 6.66944 8.05467 6.39256 7.83067 6.16933C7.60667 5.94611 7.32978 5.83411 7 5.83333C6.67023 5.83256 6.39334 5.94456 6.16934 6.16933C5.94534 6.39411 5.83334 6.671 5.83334 7V15.1667C5.83334 15.4972 5.94534 15.7745 6.16934 15.9985C6.39334 16.2225 6.67023 16.3341 7 16.3333ZM11.6667 16.3333C11.9972 16.3333 12.2745 16.2213 12.4985 15.9973C12.7225 15.7733 12.8341 15.4964 12.8333 15.1667V7C12.8333 6.66944 12.7213 6.39256 12.4973 6.16933C12.2733 5.94611 11.9964 5.83411 11.6667 5.83333C11.3369 5.83256 11.06 5.94456 10.836 6.16933C10.612 6.39411 10.5 6.671 10.5 7V15.1667C10.5 15.4972 10.612 15.7745 10.836 15.9985C11.06 16.2225 11.3369 16.3341 11.6667 16.3333Z" fill="#8A76FC"/>
</svg>
