<svg width="15" height="15" viewBox="0 0 15 15" fill="none" xmlns="http://www.w3.org/2000/svg">
<path d="M8.41992 7.30469L14.6406 1.06836C14.7383 0.970703 14.6699 0.800781 14.5313 0.800781H12.7637C12.7227 0.800781 12.6816 0.816406 12.6543 0.845703L7.31641 6.19727L5.55469 4.42969C5.79883 3.99805 5.93945 3.5 5.93945 2.96875C5.93945 1.33008 4.60938 0 2.9707 0C1.33203 0 0.00195324 1.33008 0.00195324 2.96875C0.00195324 4.60742 1.33203 5.9375 2.9707 5.9375C3.51172 5.9375 4.01758 5.79297 4.45313 5.54102L6.21094 7.30469L4.45117 9.06836C4.00066 8.80774 3.48921 8.67095 2.96875 8.67188C1.33008 8.67188 0 10.002 0 11.6406C0 13.2793 1.33008 14.6094 2.96875 14.6094C4.60742 14.6094 5.9375 13.2793 5.9375 11.6406C5.9375 11.1094 5.79688 10.6113 5.55273 10.1797L7.31445 8.41211L12.6523 13.7637C12.6816 13.793 12.7207 13.8086 12.7617 13.8086H14.5313C14.6699 13.8086 14.7402 13.6406 14.6406 13.541L8.41992 7.30469ZM2.96875 4.53125C2.10742 4.53125 1.40625 3.83008 1.40625 2.96875C1.40625 2.10742 2.10742 1.40625 2.96875 1.40625C3.83008 1.40625 4.53125 2.10742 4.53125 2.96875C4.53125 3.83008 3.83008 4.53125 2.96875 4.53125ZM2.96875 13.2031C2.10742 13.2031 1.40625 12.502 1.40625 11.6406C1.40625 10.7793 2.10742 10.0781 2.96875 10.0781C3.83008 10.0781 4.53125 10.7793 4.53125 11.6406C4.53125 12.502 3.83008 13.2031 2.96875 13.2031Z" fill="#8A76FC"/>
</svg>
