<svg width="26" height="26" viewBox="0 0 26 26" fill="none" xmlns="http://www.w3.org/2000/svg">
<path d="M19.5 18.5703L16.3634 15.4337M16.3634 15.4337C16.8999 14.8972 17.3255 14.2603 17.6159 13.5593C17.9063 12.8583 18.0557 12.1069 18.0557 11.3482C18.0557 10.5894 17.9063 9.83808 17.6159 9.13708C17.3255 8.43608 16.8999 7.79913 16.3634 7.26261C15.8269 6.72608 15.19 6.30049 14.489 6.01013C13.7879 5.71976 13.0366 5.57031 12.2779 5.57031C11.5191 5.57031 10.7678 5.71976 10.0668 6.01013C9.36577 6.30049 8.72882 6.72608 8.1923 7.26261C7.10874 8.34617 6.5 9.81579 6.5 11.3482C6.5 12.8806 7.10874 14.3502 8.1923 15.4337C9.27586 16.5173 10.7455 17.126 12.2779 17.126C13.8102 17.126 15.2799 16.5173 16.3634 15.4337ZM12.2779 9.18153V13.5148M10.1112 11.3482H14.4445" stroke="#8A76FC" stroke-width="1.5" stroke-linecap="round" stroke-linejoin="round"/>
</svg>
