<svg width="51" height="56" viewBox="0 0 51 56" fill="none" xmlns="http://www.w3.org/2000/svg">
<g clip-path="url(#clip0_744_1722)">
<mask id="path-1-outside-1_744_1722" maskUnits="userSpaceOnUse" x="-1" y="-1" width="53" height="58" fill="black">
<rect fill="white" x="-1" y="-1" width="53" height="58"/>
<path d="M12.6396 28.774C12.62 28.7193 12.6005 28.6464 12.5907 28.5826C12.4831 27.7214 12.3805 26.7692 12.2876 25.949C12.1605 24.7461 12.0187 23.3565 11.916 22.3814C11.8476 21.7207 11.6227 21.0919 11.2951 20.6226C11.0751 20.3219 10.8306 20.0987 10.5568 19.9893C10.3368 19.9073 10.0679 19.8982 9.78926 19.9984C9.40792 20.1351 8.98257 20.4222 8.50833 20.9234C8.08787 21.3699 7.76031 21.9668 7.48652 22.6001C7.10028 23.525 6.8705 24.5092 6.77761 25.1835C6.76783 25.2291 6.76783 25.2656 6.74827 25.302L4.11796 39.2171C4.07885 39.3994 4.00062 39.5634 3.88329 39.691C2.99837 40.7526 2.44102 41.6639 2.27968 42.402C2.16234 42.9442 2.27968 43.3816 2.66591 43.7233L12.3462 52.7449C12.9623 53.2962 13.6761 53.6425 14.5316 53.7883C15.4655 53.9523 16.5557 53.8612 17.8073 53.5423C17.8269 53.5423 17.8562 53.5332 17.8758 53.5332C18.35 53.4147 18.9709 53.2734 19.5674 53.1322C22.1635 52.5444 24.4271 52.025 26.5245 50.248L29.2233 47.6236C29.2477 47.578 29.2917 47.5416 29.3308 47.5051C29.3699 47.4687 29.6339 47.2226 29.9908 46.9082C31.8389 45.2269 34.1221 43.1492 32.7336 41.3313L31.6531 40.3243C31.13 40.7982 30.5726 41.2584 30.0397 41.7003C29.5508 42.1013 29.0961 42.4703 28.6806 42.8622C28.2357 43.2768 27.517 43.2768 27.0672 42.8622C26.6223 42.443 26.6223 41.7778 27.0672 41.3586C27.4876 40.9667 28.001 40.543 28.5339 40.101C30.3624 38.5974 32.4598 36.8797 31.3353 35.3715L30.2646 34.3737C30.206 34.319 30.1571 34.2552 30.1131 34.1915C29.497 34.7792 28.8223 35.3397 28.1574 35.8864C27.6685 36.2874 27.2139 36.6564 26.7983 37.0483C26.3534 37.4629 25.6347 37.4629 25.1849 37.0483C24.7351 36.6337 24.74 35.9639 25.1849 35.5447C25.6054 35.1528 26.1187 34.7291 26.6516 34.2871C28.4801 32.7835 30.5775 31.0658 29.453 29.5576L28.3823 28.5598C28.3041 28.4869 28.2454 28.4186 28.1965 28.332L25.0578 31.2572C24.6129 31.6718 23.8942 31.6718 23.4444 31.2572C22.9946 30.8425 22.9995 30.1728 23.4444 29.7536L31.8633 21.8939C33.2714 20.5816 33.5941 19.2147 33.2225 18.1804C33.0856 17.8023 32.8607 17.4651 32.582 17.2054C32.3034 16.9457 31.9416 16.7361 31.5358 16.6085C30.4406 16.2713 28.9788 16.5812 27.5316 17.9298L12.7667 31.69C12.3218 32.1046 11.6031 32.1046 11.1533 31.69C10.7035 31.2754 10.7084 30.6056 11.1533 30.1864L12.6542 28.7876L12.6396 28.774ZM40.693 11.0771C40.0965 11.6694 39.1089 11.6876 38.4831 11.1409C37.8475 10.585 37.828 9.66462 38.4147 9.0814L42.7268 4.80299C43.3233 4.21066 44.3158 4.19244 44.9367 4.7392C45.5722 5.29508 45.5918 6.21546 45.0051 6.79867L40.693 11.0771ZM21.4937 10.7764C22.1292 11.3322 22.1488 12.2572 21.5621 12.8358C20.9656 13.4282 19.9732 13.4464 19.3523 12.8996L14.7565 8.88092C14.1259 8.32049 14.1063 7.40011 14.6881 6.82145C15.2846 6.22913 16.277 6.2109 16.8979 6.75766L21.4937 10.7764ZM31.1398 7.27253C31.1642 8.07445 30.4846 8.74879 29.629 8.77613C28.7735 8.80347 28.045 8.16558 28.0157 7.36822L27.825 1.50419C27.7956 0.70683 28.4801 0.027934 29.3357 0.000595875C30.1962 -0.0221859 30.9198 0.611147 30.9442 1.40851L31.1398 7.27253ZM37.5884 28.8469C36.9528 28.291 36.9333 27.366 37.52 26.7874C38.1164 26.1951 39.104 26.1768 39.7298 26.7236L44.3206 30.7423C44.9562 31.2982 44.9758 32.2186 44.3891 32.8018C43.7926 33.3941 42.805 33.4123 42.1792 32.8656L37.5884 28.8469ZM43.2011 20.208C42.3455 20.2353 41.617 19.5975 41.5877 18.8001C41.5632 18.0027 42.2428 17.3238 43.0984 17.2965L49.3857 17.1006C50.2413 17.0732 50.9698 17.7111 50.9991 18.5085C51.0284 19.3059 50.344 19.9848 49.4884 20.0121L43.2011 20.208ZM29.7659 26.8694C29.8491 26.915 29.9322 26.9696 30.0104 27.0425L31.13 28.0859C31.1886 28.1406 31.2473 28.2135 31.2962 28.2773C32.5527 29.8811 32.3571 31.3118 31.5015 32.615C31.6531 32.6696 31.8047 32.7471 31.922 32.861L33.0416 33.9044C33.1003 33.9591 33.1589 34.032 33.2078 34.0958C34.5572 35.8272 34.2199 37.3399 33.2078 38.7159C33.2567 38.7387 33.2909 38.7797 33.3447 38.8253L34.4643 39.8687C34.523 39.9233 34.5817 39.9962 34.6305 40.06C37.2266 43.3679 34.1319 46.1747 31.6482 48.4392L31.0078 49.036L28.2357 51.7471L28.1477 51.8245C25.6102 53.9706 23.0973 54.5447 20.1883 55.2053C19.6994 55.3147 19.2105 55.4332 18.526 55.5972C18.5064 55.5972 18.4967 55.6063 18.4771 55.6063C16.9028 56.0073 15.4752 56.1029 14.1943 55.8888C12.8938 55.6701 11.7644 55.1279 10.8209 54.2667L1.13075 45.2406C0.152938 44.3612 -0.184406 43.2768 0.0942698 41.9874C0.304499 40.9576 0.949854 39.814 1.957 38.5838L4.5482 24.9421V24.8874C4.66553 24.1082 4.92954 22.9555 5.38423 21.8437C5.73135 21.0099 6.2007 20.1943 6.81183 19.5337C7.55008 18.7545 8.27854 18.2761 8.99724 18.021C9.88215 17.7066 10.728 17.7476 11.476 18.0483C12.1751 18.3217 12.7667 18.8183 13.2165 19.4517C13.7641 20.2126 14.121 21.1831 14.2187 22.1946C14.297 23.0284 14.4534 24.4044 14.6001 25.7531L14.7174 26.8785L25.9134 16.4354C28.0645 14.4306 30.3917 14.0342 32.2545 14.6037C33.0025 14.8315 33.6625 15.2097 34.2101 15.72C34.7577 16.2303 35.1634 16.8454 35.4079 17.5425C36.0239 19.274 35.6035 21.4747 33.4914 23.443L29.7806 26.9013L29.7659 26.8694Z"/>
</mask>
<path d="M12.6396 28.774C12.62 28.7193 12.6005 28.6464 12.5907 28.5826C12.4831 27.7214 12.3805 26.7692 12.2876 25.949C12.1605 24.7461 12.0187 23.3565 11.916 22.3814C11.8476 21.7207 11.6227 21.0919 11.2951 20.6226C11.0751 20.3219 10.8306 20.0987 10.5568 19.9893C10.3368 19.9073 10.0679 19.8982 9.78926 19.9984C9.40792 20.1351 8.98257 20.4222 8.50833 20.9234C8.08787 21.3699 7.76031 21.9668 7.48652 22.6001C7.10028 23.525 6.8705 24.5092 6.77761 25.1835C6.76783 25.2291 6.76783 25.2656 6.74827 25.302L4.11796 39.2171C4.07885 39.3994 4.00062 39.5634 3.88329 39.691C2.99837 40.7526 2.44102 41.6639 2.27968 42.402C2.16234 42.9442 2.27968 43.3816 2.66591 43.7233L12.3462 52.7449C12.9623 53.2962 13.6761 53.6425 14.5316 53.7883C15.4655 53.9523 16.5557 53.8612 17.8073 53.5423C17.8269 53.5423 17.8562 53.5332 17.8758 53.5332C18.35 53.4147 18.9709 53.2734 19.5674 53.1322C22.1635 52.5444 24.4271 52.025 26.5245 50.248L29.2233 47.6236C29.2477 47.578 29.2917 47.5416 29.3308 47.5051C29.3699 47.4687 29.6339 47.2226 29.9908 46.9082C31.8389 45.2269 34.1221 43.1492 32.7336 41.3313L31.6531 40.3243C31.13 40.7982 30.5726 41.2584 30.0397 41.7003C29.5508 42.1013 29.0961 42.4703 28.6806 42.8622C28.2357 43.2768 27.517 43.2768 27.0672 42.8622C26.6223 42.443 26.6223 41.7778 27.0672 41.3586C27.4876 40.9667 28.001 40.543 28.5339 40.101C30.3624 38.5974 32.4598 36.8797 31.3353 35.3715L30.2646 34.3737C30.206 34.319 30.1571 34.2552 30.1131 34.1915C29.497 34.7792 28.8223 35.3397 28.1574 35.8864C27.6685 36.2874 27.2139 36.6564 26.7983 37.0483C26.3534 37.4629 25.6347 37.4629 25.1849 37.0483C24.7351 36.6337 24.74 35.9639 25.1849 35.5447C25.6054 35.1528 26.1187 34.7291 26.6516 34.2871C28.4801 32.7835 30.5775 31.0658 29.453 29.5576L28.3823 28.5598C28.3041 28.4869 28.2454 28.4186 28.1965 28.332L25.0578 31.2572C24.6129 31.6718 23.8942 31.6718 23.4444 31.2572C22.9946 30.8425 22.9995 30.1728 23.4444 29.7536L31.8633 21.8939C33.2714 20.5816 33.5941 19.2147 33.2225 18.1804C33.0856 17.8023 32.8607 17.4651 32.582 17.2054C32.3034 16.9457 31.9416 16.7361 31.5358 16.6085C30.4406 16.2713 28.9788 16.5812 27.5316 17.9298L12.7667 31.69C12.3218 32.1046 11.6031 32.1046 11.1533 31.69C10.7035 31.2754 10.7084 30.6056 11.1533 30.1864L12.6542 28.7876L12.6396 28.774ZM40.693 11.0771C40.0965 11.6694 39.1089 11.6876 38.4831 11.1409C37.8475 10.585 37.828 9.66462 38.4147 9.0814L42.7268 4.80299C43.3233 4.21066 44.3158 4.19244 44.9367 4.7392C45.5722 5.29508 45.5918 6.21546 45.0051 6.79867L40.693 11.0771ZM21.4937 10.7764C22.1292 11.3322 22.1488 12.2572 21.5621 12.8358C20.9656 13.4282 19.9732 13.4464 19.3523 12.8996L14.7565 8.88092C14.1259 8.32049 14.1063 7.40011 14.6881 6.82145C15.2846 6.22913 16.277 6.2109 16.8979 6.75766L21.4937 10.7764ZM31.1398 7.27253C31.1642 8.07445 30.4846 8.74879 29.629 8.77613C28.7735 8.80347 28.045 8.16558 28.0157 7.36822L27.825 1.50419C27.7956 0.70683 28.4801 0.027934 29.3357 0.000595875C30.1962 -0.0221859 30.9198 0.611147 30.9442 1.40851L31.1398 7.27253ZM37.5884 28.8469C36.9528 28.291 36.9333 27.366 37.52 26.7874C38.1164 26.1951 39.104 26.1768 39.7298 26.7236L44.3206 30.7423C44.9562 31.2982 44.9758 32.2186 44.3891 32.8018C43.7926 33.3941 42.805 33.4123 42.1792 32.8656L37.5884 28.8469ZM43.2011 20.208C42.3455 20.2353 41.617 19.5975 41.5877 18.8001C41.5632 18.0027 42.2428 17.3238 43.0984 17.2965L49.3857 17.1006C50.2413 17.0732 50.9698 17.7111 50.9991 18.5085C51.0284 19.3059 50.344 19.9848 49.4884 20.0121L43.2011 20.208ZM29.7659 26.8694C29.8491 26.915 29.9322 26.9696 30.0104 27.0425L31.13 28.0859C31.1886 28.1406 31.2473 28.2135 31.2962 28.2773C32.5527 29.8811 32.3571 31.3118 31.5015 32.615C31.6531 32.6696 31.8047 32.7471 31.922 32.861L33.0416 33.9044C33.1003 33.9591 33.1589 34.032 33.2078 34.0958C34.5572 35.8272 34.2199 37.3399 33.2078 38.7159C33.2567 38.7387 33.2909 38.7797 33.3447 38.8253L34.4643 39.8687C34.523 39.9233 34.5817 39.9962 34.6305 40.06C37.2266 43.3679 34.1319 46.1747 31.6482 48.4392L31.0078 49.036L28.2357 51.7471L28.1477 51.8245C25.6102 53.9706 23.0973 54.5447 20.1883 55.2053C19.6994 55.3147 19.2105 55.4332 18.526 55.5972C18.5064 55.5972 18.4967 55.6063 18.4771 55.6063C16.9028 56.0073 15.4752 56.1029 14.1943 55.8888C12.8938 55.6701 11.7644 55.1279 10.8209 54.2667L1.13075 45.2406C0.152938 44.3612 -0.184406 43.2768 0.0942698 41.9874C0.304499 40.9576 0.949854 39.814 1.957 38.5838L4.5482 24.9421V24.8874C4.66553 24.1082 4.92954 22.9555 5.38423 21.8437C5.73135 21.0099 6.2007 20.1943 6.81183 19.5337C7.55008 18.7545 8.27854 18.2761 8.99724 18.021C9.88215 17.7066 10.728 17.7476 11.476 18.0483C12.1751 18.3217 12.7667 18.8183 13.2165 19.4517C13.7641 20.2126 14.121 21.1831 14.2187 22.1946C14.297 23.0284 14.4534 24.4044 14.6001 25.7531L14.7174 26.8785L25.9134 16.4354C28.0645 14.4306 30.3917 14.0342 32.2545 14.6037C33.0025 14.8315 33.6625 15.2097 34.2101 15.72C34.7577 16.2303 35.1634 16.8454 35.4079 17.5425C36.0239 19.274 35.6035 21.4747 33.4914 23.443L29.7806 26.9013L29.7659 26.8694Z" fill="#6356D7"/>
<path d="M12.6396 28.774C12.62 28.7193 12.6005 28.6464 12.5907 28.5826C12.4831 27.7214 12.3805 26.7692 12.2876 25.949C12.1605 24.7461 12.0187 23.3565 11.916 22.3814C11.8476 21.7207 11.6227 21.0919 11.2951 20.6226C11.0751 20.3219 10.8306 20.0987 10.5568 19.9893C10.3368 19.9073 10.0679 19.8982 9.78926 19.9984C9.40792 20.1351 8.98257 20.4222 8.50833 20.9234C8.08787 21.3699 7.76031 21.9668 7.48652 22.6001C7.10028 23.525 6.8705 24.5092 6.77761 25.1835C6.76783 25.2291 6.76783 25.2656 6.74827 25.302L4.11796 39.2171C4.07885 39.3994 4.00062 39.5634 3.88329 39.691C2.99837 40.7526 2.44102 41.6639 2.27968 42.402C2.16234 42.9442 2.27968 43.3816 2.66591 43.7233L12.3462 52.7449C12.9623 53.2962 13.6761 53.6425 14.5316 53.7883C15.4655 53.9523 16.5557 53.8612 17.8073 53.5423C17.8269 53.5423 17.8562 53.5332 17.8758 53.5332C18.35 53.4147 18.9709 53.2734 19.5674 53.1322C22.1635 52.5444 24.4271 52.025 26.5245 50.248L29.2233 47.6236C29.2477 47.578 29.2917 47.5416 29.3308 47.5051C29.3699 47.4687 29.6339 47.2226 29.9908 46.9082C31.8389 45.2269 34.1221 43.1492 32.7336 41.3313L31.6531 40.3243C31.13 40.7982 30.5726 41.2584 30.0397 41.7003C29.5508 42.1013 29.0961 42.4703 28.6806 42.8622C28.2357 43.2768 27.517 43.2768 27.0672 42.8622C26.6223 42.443 26.6223 41.7778 27.0672 41.3586C27.4876 40.9667 28.001 40.543 28.5339 40.101C30.3624 38.5974 32.4598 36.8797 31.3353 35.3715L30.2646 34.3737C30.206 34.319 30.1571 34.2552 30.1131 34.1915C29.497 34.7792 28.8223 35.3397 28.1574 35.8864C27.6685 36.2874 27.2139 36.6564 26.7983 37.0483C26.3534 37.4629 25.6347 37.4629 25.1849 37.0483C24.7351 36.6337 24.74 35.9639 25.1849 35.5447C25.6054 35.1528 26.1187 34.7291 26.6516 34.2871C28.4801 32.7835 30.5775 31.0658 29.453 29.5576L28.3823 28.5598C28.3041 28.4869 28.2454 28.4186 28.1965 28.332L25.0578 31.2572C24.6129 31.6718 23.8942 31.6718 23.4444 31.2572C22.9946 30.8425 22.9995 30.1728 23.4444 29.7536L31.8633 21.8939C33.2714 20.5816 33.5941 19.2147 33.2225 18.1804C33.0856 17.8023 32.8607 17.4651 32.582 17.2054C32.3034 16.9457 31.9416 16.7361 31.5358 16.6085C30.4406 16.2713 28.9788 16.5812 27.5316 17.9298L12.7667 31.69C12.3218 32.1046 11.6031 32.1046 11.1533 31.69C10.7035 31.2754 10.7084 30.6056 11.1533 30.1864L12.6542 28.7876L12.6396 28.774ZM40.693 11.0771C40.0965 11.6694 39.1089 11.6876 38.4831 11.1409C37.8475 10.585 37.828 9.66462 38.4147 9.0814L42.7268 4.80299C43.3233 4.21066 44.3158 4.19244 44.9367 4.7392C45.5722 5.29508 45.5918 6.21546 45.0051 6.79867L40.693 11.0771ZM21.4937 10.7764C22.1292 11.3322 22.1488 12.2572 21.5621 12.8358C20.9656 13.4282 19.9732 13.4464 19.3523 12.8996L14.7565 8.88092C14.1259 8.32049 14.1063 7.40011 14.6881 6.82145C15.2846 6.22913 16.277 6.2109 16.8979 6.75766L21.4937 10.7764ZM31.1398 7.27253C31.1642 8.07445 30.4846 8.74879 29.629 8.77613C28.7735 8.80347 28.045 8.16558 28.0157 7.36822L27.825 1.50419C27.7956 0.70683 28.4801 0.027934 29.3357 0.000595875C30.1962 -0.0221859 30.9198 0.611147 30.9442 1.40851L31.1398 7.27253ZM37.5884 28.8469C36.9528 28.291 36.9333 27.366 37.52 26.7874C38.1164 26.1951 39.104 26.1768 39.7298 26.7236L44.3206 30.7423C44.9562 31.2982 44.9758 32.2186 44.3891 32.8018C43.7926 33.3941 42.805 33.4123 42.1792 32.8656L37.5884 28.8469ZM43.2011 20.208C42.3455 20.2353 41.617 19.5975 41.5877 18.8001C41.5632 18.0027 42.2428 17.3238 43.0984 17.2965L49.3857 17.1006C50.2413 17.0732 50.9698 17.7111 50.9991 18.5085C51.0284 19.3059 50.344 19.9848 49.4884 20.0121L43.2011 20.208ZM29.7659 26.8694C29.8491 26.915 29.9322 26.9696 30.0104 27.0425L31.13 28.0859C31.1886 28.1406 31.2473 28.2135 31.2962 28.2773C32.5527 29.8811 32.3571 31.3118 31.5015 32.615C31.6531 32.6696 31.8047 32.7471 31.922 32.861L33.0416 33.9044C33.1003 33.9591 33.1589 34.032 33.2078 34.0958C34.5572 35.8272 34.2199 37.3399 33.2078 38.7159C33.2567 38.7387 33.2909 38.7797 33.3447 38.8253L34.4643 39.8687C34.523 39.9233 34.5817 39.9962 34.6305 40.06C37.2266 43.3679 34.1319 46.1747 31.6482 48.4392L31.0078 49.036L28.2357 51.7471L28.1477 51.8245C25.6102 53.9706 23.0973 54.5447 20.1883 55.2053C19.6994 55.3147 19.2105 55.4332 18.526 55.5972C18.5064 55.5972 18.4967 55.6063 18.4771 55.6063C16.9028 56.0073 15.4752 56.1029 14.1943 55.8888C12.8938 55.6701 11.7644 55.1279 10.8209 54.2667L1.13075 45.2406C0.152938 44.3612 -0.184406 43.2768 0.0942698 41.9874C0.304499 40.9576 0.949854 39.814 1.957 38.5838L4.5482 24.9421V24.8874C4.66553 24.1082 4.92954 22.9555 5.38423 21.8437C5.73135 21.0099 6.2007 20.1943 6.81183 19.5337C7.55008 18.7545 8.27854 18.2761 8.99724 18.021C9.88215 17.7066 10.728 17.7476 11.476 18.0483C12.1751 18.3217 12.7667 18.8183 13.2165 19.4517C13.7641 20.2126 14.121 21.1831 14.2187 22.1946C14.297 23.0284 14.4534 24.4044 14.6001 25.7531L14.7174 26.8785L25.9134 16.4354C28.0645 14.4306 30.3917 14.0342 32.2545 14.6037C33.0025 14.8315 33.6625 15.2097 34.2101 15.72C34.7577 16.2303 35.1634 16.8454 35.4079 17.5425C36.0239 19.274 35.6035 21.4747 33.4914 23.443L29.7806 26.9013L29.7659 26.8694Z" stroke="#6356D7" mask="url(#path-1-outside-1_744_1722)"/>
</g>
<defs>
<clipPath id="clip0_744_1722">
<rect width="51" height="56" fill="white"/>
</clipPath>
</defs>
</svg>
